<?xml version="1.0" standalone="no"?>
<!DOCTYPE svg PUBLIC "-//W3C//DTD SVG 20010904//EN"
 "http://www.w3.org/TR/2001/REC-SVG-20010904/DTD/svg10.dtd">
<svg version="1.0" xmlns="http://www.w3.org/2000/svg"
 width="512.000000pt" height="512.000000pt" viewBox="0 0 512.000000 512.000000"
 preserveAspectRatio="xMidYMid meet">
<metadata>
Created by potrace 1.11, written by Peter Selinger 2001-2013
</metadata>
<g transform="translate(0.000000,512.000000) scale(0.100000,-0.100000)"
fill="#000000" stroke="none">
<path d="M2358 5005 c-2 -2 -25 -6 -53 -9 -154 -20 -167 -22 -295 -51 -113
-25 -349 -100 -364 -116 -6 -5 -16 -9 -24 -9 -21 0 -258 -121 -353 -181 -650
-407 -1068 -1079 -1148 -1849 -9 -85 -7 -452 2 -500 3 -14 8 -47 12 -75 11
-93 47 -259 77 -359 169 -570 548 -1067 1056 -1385 221 -138 538 -268 746
-307 16 -2 32 -7 35 -9 4 -2 26 -6 51 -10 25 -4 47 -8 50 -10 3 -2 34 -6 70
-10 36 -4 74 -9 85 -12 49 -12 418 -10 525 2 336 39 654 140 932 296 70 40
277 175 288 188 3 3 37 31 75 62 69 55 222 202 280 269 321 373 516 792 590
1270 26 174 27 564 1 697 -3 11 -8 43 -12 70 -8 56 -8 59 -29 148 -50 214
-143 454 -248 640 -42 75 -163 258 -195 297 -91 108 -154 180 -192 219 -138
140 -309 276 -470 375 -98 59 -306 166 -350 179 -14 4 -29 11 -35 15 -12 10
-208 73 -290 94 -52 13 -188 38 -330 61 -39 7 -481 15 -487 10z m847 -1146 c3
-3 -9 -46 -26 -95 -17 -49 -62 -177 -99 -284 -38 -107 -96 -274 -130 -370 -34
-96 -67 -193 -75 -215 -15 -45 -61 -176 -130 -370 -26 -71 -55 -155 -65 -185
-10 -30 -46 -134 -80 -230 -87 -248 -130 -369 -145 -415 -33 -99 -125 -357
-130 -366 -6 -8 -375 -14 -375 -5 0 2 54 156 119 342 156 443 328 935 386
1104 26 74 50 144 55 155 5 11 64 178 130 370 103 297 181 520 196 560 4 10
359 14 369 4z m-1333 -830 c0 -88 -2 -163 -4 -165 -2 -2 -123 -47 -268 -100
-146 -53 -294 -108 -330 -121 -36 -14 -78 -29 -95 -34 -16 -5 -39 -13 -50 -18
-11 -5 -49 -19 -83 -32 l-64 -22 32 -13 c17 -8 169 -64 338 -125 169 -62 350
-127 402 -146 52 -20 101 -35 108 -36 14 0 15 -43 12 -304 l0 -42 -92 35 c-51
20 -109 42 -128 50 -77 31 -939 357 -997 377 -63 22 -63 22 -64 62 -2 89 -4
315 -3 315 3 0 611 232 629 239 54 24 650 248 654 245 2 -2 3 -76 3 -165z
m1566 102 c9 -5 19 -9 22 -9 6 -1 -11 6 315 -118 588 -223 691 -262 733 -279
l42 -17 -2 -175 -3 -175 -75 -28 c-258 -99 -1068 -407 -1131 -430 l-76 -28 0
167 0 168 136 50 c75 28 277 102 449 164 l312 114 -77 28 c-43 16 -100 37
-128 48 -71 27 -376 138 -530 193 -71 26 -137 51 -145 55 -12 7 -15 37 -16
174 l-1 165 79 -29 c44 -16 87 -33 96 -38z"/>
</g>
</svg>
